<svg xmlns="http://www.w3.org/2000/svg" xmlns:xlink="http://www.w3.org/1999/xlink" width="1024" zoomAndPan="magnify" viewBox="0 0 768 767.999994" height="1024" preserveAspectRatio="xMidYMid meet" version="1.0"><defs><g/><clipPath id="id1"><path d="M 0.125 379 L 85.457031 379 L 85.457031 389 L 0.125 389 Z M 0.125 379 " clip-rule="nonzero"/></clipPath><clipPath id="id2"><path d="M 682.660156 379 L 767.992188 379 L 767.992188 389 L 682.660156 389 Z M 682.660156 379 " clip-rule="nonzero"/></clipPath><clipPath id="id3"><path d="M 55 177 L 133 177 L 133 231 L 55 231 Z M 55 177 " clip-rule="nonzero"/></clipPath><clipPath id="id4"><path d="M 112.449219 255.292969 L 40.015625 210.179688 L 76.199219 152.082031 L 148.632812 197.195312 Z M 112.449219 255.292969 " clip-rule="nonzero"/></clipPath><clipPath id="id5"><path d="M 635 538 L 713 538 L 713 591 L 635 591 Z M 635 538 " clip-rule="nonzero"/></clipPath><clipPath id="id6"><path d="M 691.804688 616.125 L 619.371094 571.011719 L 655.554688 512.914062 L 727.988281 558.027344 Z M 691.804688 616.125 " clip-rule="nonzero"/></clipPath><clipPath id="id7"><path d="M 46 526 L 126 526 L 126 576 L 46 576 Z M 46 526 " clip-rule="nonzero"/></clipPath><clipPath id="id8"><path d="M 140.386719 559.9375 L 65.957031 601.675781 L 32.480469 541.976562 L 106.910156 500.238281 Z M 140.386719 559.9375 " clip-rule="nonzero"/></clipPath><clipPath id="id9"><path d="M 642 192 L 722 192 L 722 243 L 642 243 Z M 642 192 " clip-rule="nonzero"/></clipPath><clipPath id="id10"><path d="M 735.710938 226.109375 L 661.28125 267.84375 L 627.804688 208.144531 L 702.234375 166.410156 Z M 735.710938 226.109375 " clip-rule="nonzero"/></clipPath></defs><path fill="#00132e" d="M 384 0 C 171.921875 0 0 171.921875 0 384 C 0 596.078125 171.921875 768 384 768 C 596.078125 768 768 596.078125 768 384 C 768 171.921875 596.078125 0 384 0 " fill-opacity="1" fill-rule="nonzero"/><g clip-path="url(#id1)"><path fill="#ffffff" d="M 85.457031 388.679688 L 0.125 388.679688 L 0.125 379.488281 L 85.457031 379.488281 L 85.457031 388.679688 " fill-opacity="1" fill-rule="nonzero"/></g><g clip-path="url(#id2)"><path fill="#ffffff" d="M 767.992188 388.679688 L 682.660156 388.679688 L 682.660156 379.488281 L 767.992188 379.488281 L 767.992188 388.679688 " fill-opacity="1" fill-rule="nonzero"/></g><g clip-path="url(#id3)"><g clip-path="url(#id4)"><path fill="#ffffff" d="M 128.113281 230.144531 L 55.679688 185.03125 L 60.535156 177.230469 L 132.96875 222.34375 L 128.113281 230.144531 " fill-opacity="1" fill-rule="nonzero"/></g></g><g clip-path="url(#id5)"><g clip-path="url(#id6)"><path fill="#ffffff" d="M 707.464844 590.976562 L 635.03125 545.863281 L 639.890625 538.0625 L 712.324219 583.175781 L 707.464844 590.976562 " fill-opacity="1" fill-rule="nonzero"/></g></g><g clip-path="url(#id7)"><g clip-path="url(#id8)"><path fill="#ffffff" d="M 125.894531 534.097656 L 51.464844 575.832031 L 46.972656 567.820312 L 121.402344 526.082031 L 125.894531 534.097656 " fill-opacity="1" fill-rule="nonzero"/></g></g><g clip-path="url(#id9)"><g clip-path="url(#id10)"><path fill="#ffffff" d="M 721.21875 200.265625 L 646.789062 242.003906 L 642.292969 233.988281 L 716.722656 192.25 L 721.21875 200.265625 " fill-opacity="1" fill-rule="nonzero"/></g></g><g fill="#ffffff" fill-opacity="1"><g transform="translate(384.090881, 457.67862)"><g/></g></g><g fill="#ffffff" fill-opacity="1"><g transform="translate(385.351147, 288.127668)"><g/></g></g><g fill="#ffffff" fill-opacity="1"><g transform="translate(384.773991, 503.658007)"><g/></g></g><g fill="#9d3be1" fill-opacity="1"><g transform="translate(156.550645, 475.131208)"><g><path d="M 112.335938 -255 C 112.335938 -257.785156 110.480469 -259.949219 107.382812 -259.949219 L 70.558594 -259.949219 C 67.152344 -259.949219 63.75 -257.164062 63.132812 -253.761719 L -1.238281 50.753906 C -1.238281 53.539062 0.308594 55.703125 3.402344 55.703125 L 110.480469 55.703125 C 113.882812 55.703125 117.289062 52.917969 117.90625 49.515625 L 124.714844 18.878906 L 124.714844 17.640625 C 124.714844 14.855469 122.859375 12.6875 119.761719 12.6875 L 55.703125 12.6875 Z M 112.335938 -255 "/></g></g></g><g fill="#9d3be1" fill-opacity="1"><g transform="translate(240.106146, 475.131208)"><g><path d="M 63.132812 -253.761719 C 12.996094 -19.1875 12.996094 -16.710938 12.996094 -14.855469 C 12.996094 0 25.996094 0 30.945312 0 L 116.667969 0 C 120.074219 0 123.167969 -2.785156 124.09375 -6.1875 C 176.085938 -253.761719 176.394531 -254.070312 176.394531 -254.691406 C 176.394531 -257.476562 174.230469 -259.332031 171.445312 -259.332031 L 134.617188 -259.332031 C 131.214844 -259.332031 127.808594 -256.546875 126.878906 -253.140625 L 81.699219 -39.921875 L 66.84375 -39.921875 L 112.335938 -255 C 112.335938 -257.785156 110.480469 -259.949219 107.382812 -259.949219 L 70.558594 -259.949219 C 67.152344 -259.949219 63.75 -257.164062 63.132812 -253.761719 Z M 63.132812 -253.761719 "/></g></g></g><path stroke-linecap="butt" transform="matrix(0.75, 0, 0, 0.75, -44.483916, 182.807589)" fill="none" stroke-linejoin="miter" d="M 405.077533 37.011759 C 405.077533 33.282592 402.556699 30.360717 398.426491 30.360717 L 349.369196 30.360717 C 344.837946 30.360717 340.301488 34.089884 339.499404 38.621134 L 253.671275 444.694071 C 253.671275 448.423237 255.681692 451.240946 259.8119 451.240946 L 402.556699 451.240946 C 407.093158 451.240946 411.624408 447.516987 412.530658 442.980529 L 421.598367 402.183652 L 421.598367 400.47011 C 421.598367 396.84511 419.077533 393.923235 414.947325 393.923235 L 329.525445 393.923235 Z M 450.90566 38.621134 C 384.015031 351.412816 384.015031 354.735733 384.015031 357.1524 C 384.015031 377.001359 401.343157 377.001359 407.988991 377.001359 L 522.22858 377.001359 C 526.75983 377.001359 530.890039 373.272192 532.098372 368.740942 C 601.509834 38.621134 601.910876 38.220092 601.910876 37.4128 C 601.910876 33.688842 598.989 31.266967 595.259834 31.266967 L 546.202539 31.266967 C 541.671289 31.266967 537.134831 34.897175 535.827539 39.428426 L 475.587953 323.808648 L 455.84316 323.808648 L 516.483788 37.011759 C 516.483788 33.282592 513.968163 30.360717 509.837954 30.360717 L 460.775452 30.360717 C 456.244202 30.360717 451.712951 34.089884 450.90566 38.621134 Z M 450.90566 38.621134 " stroke="#79ffa0" stroke-width="7.736662" stroke-opacity="1" stroke-miterlimit="4"/><g fill="#5271ff" fill-opacity="1"><g transform="translate(372.96009, 540.856781)"><g><path d="M 60.113281 -239.824219 C 13.082031 -19.308594 13.082031 -16.820312 13.082031 -14.949219 C 13.082031 0 26.164062 0 31.144531 0 L 114.304688 0 C 117.730469 0 120.847656 -2.804688 121.78125 -6.230469 L 127.386719 -33.949219 L 127.386719 -35.195312 C 127.386719 -38 125.519531 -40.179688 122.402344 -40.179688 L 67.273438 -40.179688 L 105.894531 -221.449219 L 157.910156 -221.449219 C 161.335938 -221.449219 164.761719 -224.25 165.386719 -227.675781 L 171.613281 -256.644531 C 171.613281 -259.445312 169.746094 -261.625 166.632812 -261.625 L 86.585938 -261.625 C 80.980469 -261.625 64.785156 -261.625 60.113281 -239.824219 Z M 60.113281 -239.824219 "/></g></g></g><g fill="#5271ff" fill-opacity="1"><g transform="translate(497.855329, 540.856781)"><g><path d="M 86.273438 -261.625 C 80.667969 -261.625 64.785156 -261.316406 60.113281 -239.824219 C 10.589844 -5.605469 10.277344 -4.984375 10.277344 -4.671875 C 10.277344 -1.867188 12.769531 0 15.574219 0 L 52.636719 0 C 56.0625 0 59.175781 -2.804688 60.113281 -6.230469 L 78.175781 -92.191406 L 93.125 -92.191406 C 75.0625 -5.605469 74.75 -4.984375 74.75 -4.671875 C 74.75 -1.867188 77.242188 0 80.046875 0 L 117.109375 0 C 120.535156 0 123.648438 -2.804688 124.585938 -6.230469 C 175.351562 -242.628906 175.664062 -244.808594 175.664062 -246.988281 C 175.664062 -261.316406 162.894531 -261.625 157.910156 -261.625 Z M 105.894531 -221.449219 L 120.847656 -221.449219 L 101.847656 -132.058594 L 86.898438 -132.058594 Z M 105.894531 -221.449219 "/></g></g></g><path stroke-linecap="butt" transform="matrix(0.75, 0, 0, 0.75, 185.234759, 255.971316)" fill="none" stroke-linejoin="miter" d="M 317.650546 47.225747 C 254.890126 341.246595 254.890126 344.595554 254.890126 347.027846 C 254.890126 367.001805 272.327627 367.001805 279.020336 367.001805 L 389.838049 367.001805 C 394.40055 367.001805 398.5568 363.246596 399.874508 358.684096 L 407.27555 321.783053 L 407.27555 320.059094 C 407.27555 316.309094 404.843259 313.465344 400.687008 313.465344 L 327.181796 313.465344 L 378.687007 71.762207 L 448.030761 71.762207 C 452.593261 71.762207 457.155761 68.012207 457.968261 63.449707 L 466.280762 24.819496 C 466.280762 21.069496 463.749511 18.126788 459.593261 18.126788 L 352.931798 18.126788 C 345.431797 18.126788 323.832838 18.126788 317.650546 47.225747 Z M 519.051598 18.126788 C 511.551597 18.126788 490.364096 18.533038 484.176596 47.225747 C 418.072426 359.496596 417.666176 360.309096 417.666176 360.814305 C 417.666176 364.465347 421.015134 367.001805 424.765135 367.001805 L 474.140137 367.001805 C 478.702637 367.001805 482.858887 363.246596 484.176596 358.684096 L 508.207847 244.121591 L 528.176598 244.121591 C 504.046388 359.496596 503.645347 360.309096 503.645347 360.814305 C 503.645347 364.465347 506.989097 367.001805 510.739097 367.001805 L 560.1141 367.001805 C 564.6766 367.001805 568.83285 363.246596 570.0516 358.684096 C 637.775562 43.475747 638.181812 40.637205 638.181812 37.694497 C 638.181812 18.533038 621.150561 18.126788 614.562019 18.126788 Z M 545.213057 71.762207 L 565.08285 71.762207 L 539.739099 190.892421 L 519.864098 190.892421 Z M 545.213057 71.762207 " stroke="#79ffa0" stroke-width="7.78665" stroke-opacity="1" stroke-miterlimit="4"/></svg>