<svg xmlns="http://www.w3.org/2000/svg" xmlns:xlink="http://www.w3.org/1999/xlink" width="500" zoomAndPan="magnify" viewBox="0 0 375 374.999991" height="500" preserveAspectRatio="xMidYMid meet" version="1.0"><defs><g/><clipPath id="id1"><path d="M 44.652344 167.550781 L 330.402344 167.550781 L 330.402344 217.800781 L 44.652344 217.800781 Z M 44.652344 167.550781 " clip-rule="nonzero"/></clipPath></defs><g fill="#fbf7f7" fill-opacity="1"><g transform="translate(37.504808, 270.916367)"><g><path d="M 51.734375 0 L 51.734375 -241.652344 L 27.503906 -241.652344 L 27.503906 0 Z M 51.734375 0 "/></g></g></g><g fill="#fbf7f7" fill-opacity="1"><g transform="translate(116.744303, 270.916367)"><g><path d="M 49.117188 55.992188 L 49.117188 -36.347656 C 63.195312 -11.132812 89.71875 3.273438 119.1875 3.273438 C 171.578125 3.273438 210.871094 -35.363281 210.871094 -88.082031 C 210.871094 -141.128906 171.578125 -180.09375 117.222656 -180.09375 C 63.195312 -180.09375 24.230469 -141.457031 24.230469 -86.445312 L 24.230469 55.992188 Z M 117.222656 -19.320312 C 77.605469 -19.320312 49.117188 -47.152344 49.117188 -88.082031 C 49.117188 -129.339844 77.929688 -157.828125 117.550781 -157.828125 C 157.5 -157.828125 185.988281 -129.339844 185.988281 -88.410156 C 185.988281 -47.152344 157.171875 -19.320312 117.222656 -19.320312 Z M 117.222656 -19.320312 "/></g></g></g><g clip-path="url(#id1)"><path fill="#17181a" d="M 44.683594 167.550781 L 330.375 167.550781 L 330.375 217.800781 L 44.683594 217.800781 L 44.683594 167.550781 " fill-opacity="1" fill-rule="nonzero"/></g><g fill="#fbf7f7" fill-opacity="1"><g transform="translate(31.494142, 200.114592)"><g><path d="M 10.519531 0 C 16.96875 0 21.09375 -3.84375 21.09375 -9.84375 C 21.09375 -15.789062 16.96875 -19.632812 10.519531 -19.632812 L 2.75 -19.632812 L 2.75 0 Z M 4.910156 -17.699219 L 10.378906 -17.699219 C 15.566406 -17.699219 18.820312 -14.726562 18.820312 -9.816406 C 18.820312 -4.9375 15.566406 -1.933594 10.40625 -1.933594 L 4.910156 -1.933594 Z M 4.910156 -17.699219 "/></g></g></g><g fill="#fbf7f7" fill-opacity="1"><g transform="translate(62.850691, 200.114592)"><g><path d="M 4.878906 -9.085938 L 16.097656 -9.085938 L 16.097656 -11.023438 L 4.878906 -11.023438 L 4.878906 -17.699219 L 17.585938 -17.699219 L 17.585938 -19.632812 L 2.75 -19.632812 L 2.75 0 L 17.867188 0 L 17.867188 -1.933594 L 4.878906 -1.933594 Z M 4.878906 -9.085938 "/></g></g></g><g fill="#fbf7f7" fill-opacity="1"><g transform="translate(90.589586, 200.114592)"><g><path d="M 11.863281 0 L 20.304688 -19.632812 L 18.007812 -19.632812 L 10.488281 -2.273438 L 10.433594 -2.273438 L 2.917969 -19.632812 L 0.617188 -19.632812 L 9.058594 0 Z M 11.863281 0 "/></g></g></g><g fill="#fbf7f7" fill-opacity="1"><g transform="translate(119.926975, 200.114592)"><g><path d="M 4.878906 -9.085938 L 16.097656 -9.085938 L 16.097656 -11.023438 L 4.878906 -11.023438 L 4.878906 -17.699219 L 17.585938 -17.699219 L 17.585938 -19.632812 L 2.75 -19.632812 L 2.75 0 L 17.867188 0 L 17.867188 -1.933594 L 4.878906 -1.933594 Z M 4.878906 -9.085938 "/></g></g></g><g fill="#fbf7f7" fill-opacity="1"><g transform="translate(147.665869, 200.114592)"><g><path d="M 16.4375 0 L 16.4375 -1.933594 L 4.910156 -1.933594 L 4.910156 -19.632812 L 2.75 -19.632812 L 2.75 0 Z M 16.4375 0 "/></g></g></g><g fill="#fbf7f7" fill-opacity="1"><g transform="translate(173.189298, 200.114592)"><g><path d="M 12.003906 0.28125 C 17.921875 0.28125 22.214844 -3.953125 22.214844 -9.816406 C 22.214844 -15.679688 17.921875 -19.914062 12.03125 -19.914062 C 6.140625 -19.914062 1.851562 -15.679688 1.851562 -9.816406 C 1.851562 -3.953125 6.140625 0.28125 12.003906 0.28125 Z M 12.03125 -1.738281 C 7.433594 -1.738281 4.152344 -5.019531 4.152344 -9.816406 C 4.152344 -14.613281 7.433594 -17.921875 12.03125 -17.921875 C 16.632812 -17.921875 19.914062 -14.613281 19.914062 -9.816406 C 19.914062 -5.019531 16.632812 -1.738281 12.03125 -1.738281 Z M 12.03125 -1.738281 "/></g></g></g><g fill="#fbf7f7" fill-opacity="1"><g transform="translate(205.667605, 200.114592)"><g><path d="M 10.070312 -19.632812 L 2.75 -19.632812 L 2.75 0 L 4.910156 0 L 4.910156 -6.507812 L 10.011719 -6.507812 C 15.003906 -6.507812 18.089844 -8.945312 18.089844 -13.097656 C 18.089844 -17.191406 15.089844 -19.632812 10.070312 -19.632812 Z M 4.910156 -8.46875 L 4.910156 -17.699219 L 10.011719 -17.699219 C 13.742188 -17.699219 15.929688 -16.097656 15.929688 -13.125 C 15.929688 -10.070312 13.742188 -8.46875 9.984375 -8.46875 Z M 4.910156 -8.46875 "/></g></g></g><g fill="#fbf7f7" fill-opacity="1"><g transform="translate(233.266272, 200.114592)"><g><path d="M 20.195312 -19.632812 L 12.734375 -3.308594 L 5.300781 -19.632812 L 3.058594 -19.632812 L 1.933594 0 L 4.121094 0 L 4.992188 -15.175781 L 12.003906 0 L 13.433594 0 L 20.476562 -15.175781 L 21.316406 0 L 23.503906 0 L 22.382812 -19.632812 Z M 20.195312 -19.632812 "/></g></g></g><g fill="#fbf7f7" fill-opacity="1"><g transform="translate(267.118719, 200.114592)"><g><path d="M 4.878906 -9.085938 L 16.097656 -9.085938 L 16.097656 -11.023438 L 4.878906 -11.023438 L 4.878906 -17.699219 L 17.585938 -17.699219 L 17.585938 -19.632812 L 2.75 -19.632812 L 2.75 0 L 17.867188 0 L 17.867188 -1.933594 L 4.878906 -1.933594 Z M 4.878906 -9.085938 "/></g></g></g><g fill="#fbf7f7" fill-opacity="1"><g transform="translate(294.857608, 200.114592)"><g><path d="M 4.910156 0 L 4.910156 -16.097656 L 18.089844 0 L 20.082031 0 L 20.082031 -19.632812 L 17.894531 -19.632812 L 17.894531 -3.617188 L 4.769531 -19.632812 L 2.75 -19.632812 L 2.75 0 Z M 4.910156 0 "/></g></g></g><g fill="#fbf7f7" fill-opacity="1"><g transform="translate(326.073929, 200.114592)"><g><path d="M 0.671875 -19.632812 L 0.671875 -17.699219 L 7.601562 -17.699219 L 7.601562 0 L 9.789062 0 L 9.789062 -17.699219 L 16.746094 -17.699219 L 16.746094 -19.632812 Z M 0.671875 -19.632812 "/></g></g></g></svg>