<svg xmlns="http://www.w3.org/2000/svg" xmlns:xlink="http://www.w3.org/1999/xlink" width="500" zoomAndPan="magnify" viewBox="0 0 375 374.999991" height="500" preserveAspectRatio="xMidYMid meet" version="1.0"><defs><g/><clipPath id="id1"><path d="M 29.683594 164.183594 L 363.433594 164.183594 L 363.433594 222.683594 L 29.683594 222.683594 Z M 29.683594 164.183594 " clip-rule="nonzero"/></clipPath></defs><g fill="#17181a" fill-opacity="1"><g transform="translate(25.083311, 290.391894)"><g><path d="M 57.800781 0 L 57.800781 -269.980469 L 30.730469 -269.980469 L 30.730469 0 Z M 57.800781 0 "/></g></g></g><g fill="#17181a" fill-opacity="1"><g transform="translate(113.611142, 290.391894)"><g><path d="M 54.875 62.554688 L 54.875 -40.605469 C 70.605469 -12.4375 100.234375 3.660156 133.160156 3.660156 C 191.691406 3.660156 235.589844 -39.507812 235.589844 -98.40625 C 235.589844 -157.671875 191.691406 -201.203125 130.964844 -201.203125 C 70.605469 -201.203125 27.070312 -158.035156 27.070312 -96.578125 L 27.070312 62.554688 Z M 130.964844 -21.582031 C 86.699219 -21.582031 54.875 -52.679688 54.875 -98.40625 C 54.875 -144.5 87.066406 -176.328125 131.332031 -176.328125 C 175.960938 -176.328125 207.789062 -144.5 207.789062 -98.773438 C 207.789062 -52.679688 175.597656 -21.582031 130.964844 -21.582031 Z M 130.964844 -21.582031 "/></g></g></g><g clip-path="url(#id1)"><path fill="#fbf7f7" d="M 29.683594 164.183594 L 363.433594 164.183594 L 363.433594 222.683594 L 29.683594 222.683594 L 29.683594 164.183594 " fill-opacity="1" fill-rule="nonzero"/></g><g fill="#17181a" fill-opacity="1"><g transform="translate(51.359907, 205.138614)"><g><path d="M 9.796875 0 C 15.804688 0 19.644531 -3.578125 19.644531 -9.167969 C 19.644531 -14.707031 15.804688 -18.289062 9.796875 -18.289062 L 2.558594 -18.289062 L 2.558594 0 Z M 4.570312 -16.484375 L 9.667969 -16.484375 C 14.5 -16.484375 17.53125 -13.714844 17.53125 -9.144531 C 17.53125 -4.597656 14.5 -1.800781 9.691406 -1.800781 L 4.570312 -1.800781 Z M 4.570312 -16.484375 "/></g></g></g><g fill="#17181a" fill-opacity="1"><g transform="translate(80.566335, 205.138614)"><g><path d="M 4.546875 -8.464844 L 14.996094 -8.464844 L 14.996094 -10.265625 L 4.546875 -10.265625 L 4.546875 -16.484375 L 16.378906 -16.484375 L 16.378906 -18.289062 L 2.558594 -18.289062 L 2.558594 0 L 16.640625 0 L 16.640625 -1.800781 L 4.546875 -1.800781 Z M 4.546875 -8.464844 "/></g></g></g><g fill="#17181a" fill-opacity="1"><g transform="translate(106.403171, 205.138614)"><g><path d="M 11.050781 0 L 18.914062 -18.289062 L 16.773438 -18.289062 L 9.769531 -2.117188 L 9.71875 -2.117188 L 2.71875 -18.289062 L 0.574219 -18.289062 L 8.4375 0 Z M 11.050781 0 "/></g></g></g><g fill="#17181a" fill-opacity="1"><g transform="translate(133.728911, 205.138614)"><g><path d="M 4.546875 -8.464844 L 14.996094 -8.464844 L 14.996094 -10.265625 L 4.546875 -10.265625 L 4.546875 -16.484375 L 16.378906 -16.484375 L 16.378906 -18.289062 L 2.558594 -18.289062 L 2.558594 0 L 16.640625 0 L 16.640625 -1.800781 L 4.546875 -1.800781 Z M 4.546875 -8.464844 "/></g></g></g><g fill="#17181a" fill-opacity="1"><g transform="translate(159.565746, 205.138614)"><g><path d="M 15.308594 0 L 15.308594 -1.800781 L 4.570312 -1.800781 L 4.570312 -18.289062 L 2.558594 -18.289062 L 2.558594 0 Z M 15.308594 0 "/></g></g></g><g fill="#17181a" fill-opacity="1"><g transform="translate(183.339018, 205.138614)"><g><path d="M 11.179688 0.261719 C 16.695312 0.261719 20.691406 -3.683594 20.691406 -9.144531 C 20.691406 -14.605469 16.695312 -18.546875 11.207031 -18.546875 C 5.722656 -18.546875 1.722656 -14.605469 1.722656 -9.144531 C 1.722656 -3.683594 5.722656 0.261719 11.179688 0.261719 Z M 11.207031 -1.621094 C 6.921875 -1.621094 3.867188 -4.675781 3.867188 -9.144531 C 3.867188 -13.609375 6.921875 -16.695312 11.207031 -16.695312 C 15.492188 -16.695312 18.546875 -13.609375 18.546875 -9.144531 C 18.546875 -4.675781 15.492188 -1.621094 11.207031 -1.621094 Z M 11.207031 -1.621094 "/></g></g></g><g fill="#17181a" fill-opacity="1"><g transform="translate(213.590285, 205.138614)"><g><path d="M 9.378906 -18.289062 L 2.558594 -18.289062 L 2.558594 0 L 4.570312 0 L 4.570312 -6.0625 L 9.328125 -6.0625 C 13.976562 -6.0625 16.851562 -8.332031 16.851562 -12.199219 C 16.851562 -16.015625 14.054688 -18.289062 9.378906 -18.289062 Z M 4.570312 -7.890625 L 4.570312 -16.484375 L 9.328125 -16.484375 C 12.800781 -16.484375 14.839844 -14.996094 14.839844 -12.226562 C 14.839844 -9.378906 12.800781 -7.890625 9.300781 -7.890625 Z M 4.570312 -7.890625 "/></g></g></g><g fill="#17181a" fill-opacity="1"><g transform="translate(239.296519, 205.138614)"><g><path d="M 18.808594 -18.289062 L 11.859375 -3.082031 L 4.9375 -18.289062 L 2.847656 -18.289062 L 1.800781 0 L 3.839844 0 L 4.648438 -14.132812 L 11.179688 0 L 12.515625 0 L 19.070312 -14.132812 L 19.855469 0 L 21.890625 0 L 20.847656 -18.289062 Z M 18.808594 -18.289062 "/></g></g></g><g fill="#17181a" fill-opacity="1"><g transform="translate(270.827715, 205.138614)"><g><path d="M 4.546875 -8.464844 L 14.996094 -8.464844 L 14.996094 -10.265625 L 4.546875 -10.265625 L 4.546875 -16.484375 L 16.378906 -16.484375 L 16.378906 -18.289062 L 2.558594 -18.289062 L 2.558594 0 L 16.640625 0 L 16.640625 -1.800781 L 4.546875 -1.800781 Z M 4.546875 -8.464844 "/></g></g></g><g fill="#17181a" fill-opacity="1"><g transform="translate(296.664543, 205.138614)"><g><path d="M 4.570312 0 L 4.570312 -14.996094 L 16.851562 0 L 18.707031 0 L 18.707031 -18.289062 L 16.667969 -18.289062 L 16.667969 -3.371094 L 4.441406 -18.289062 L 2.558594 -18.289062 L 2.558594 0 Z M 4.570312 0 "/></g></g></g><g fill="#17181a" fill-opacity="1"><g transform="translate(325.740369, 205.138614)"><g><path d="M 0.628906 -18.289062 L 0.628906 -16.484375 L 7.078125 -16.484375 L 7.078125 0 L 9.117188 0 L 9.117188 -16.484375 L 15.597656 -16.484375 L 15.597656 -18.289062 Z M 0.628906 -18.289062 "/></g></g></g></svg>