<svg xmlns="http://www.w3.org/2000/svg" xmlns:xlink="http://www.w3.org/1999/xlink" width="500" zoomAndPan="magnify" viewBox="0 0 375 374.999991" height="500" preserveAspectRatio="xMidYMid meet" version="1.0"><defs><g/><clipPath id="id1"><path d="M 29.683594 164.183594 L 363.433594 164.183594 L 363.433594 222.683594 L 29.683594 222.683594 Z M 29.683594 164.183594 " clip-rule="nonzero"/></clipPath></defs><g fill="#ffffff" fill-opacity="1"><g transform="translate(25.087009, 290.990028)"><g><path d="M 57.800781 0 L 57.800781 -269.984375 L 30.730469 -269.984375 L 30.730469 0 Z M 57.800781 0 "/></g></g></g><g fill="#ffffff" fill-opacity="1"><g transform="translate(113.618932, 290.990028)"><g><path d="M 54.875 62.558594 L 54.875 -40.609375 C 70.605469 -12.4375 100.238281 3.660156 133.164062 3.660156 C 191.699219 3.660156 235.597656 -39.511719 235.597656 -98.410156 C 235.597656 -157.675781 191.699219 -201.210938 130.96875 -201.210938 C 70.605469 -201.210938 27.070312 -158.039062 27.070312 -96.582031 L 27.070312 62.558594 Z M 130.96875 -21.585938 C 86.703125 -21.585938 54.875 -52.679688 54.875 -98.410156 C 54.875 -144.503906 87.070312 -176.332031 131.335938 -176.332031 C 175.964844 -176.332031 207.792969 -144.503906 207.792969 -98.777344 C 207.792969 -52.679688 175.601562 -21.585938 130.96875 -21.585938 Z M 130.96875 -21.585938 "/></g></g></g><g clip-path="url(#id1)"><path fill="#bbbbbb" d="M 29.683594 164.183594 L 363.433594 164.183594 L 363.433594 222.683594 L 29.683594 222.683594 L 29.683594 164.183594 " fill-opacity="1" fill-rule="nonzero"/></g><g fill="#ffffff" fill-opacity="1"><g transform="translate(51.360541, 205.160612)"><g><path d="M 9.796875 0 C 15.808594 0 19.648438 -3.578125 19.648438 -9.171875 C 19.648438 -14.710938 15.808594 -18.289062 9.796875 -18.289062 L 2.5625 -18.289062 L 2.5625 0 Z M 4.574219 -16.488281 L 9.667969 -16.488281 C 14.503906 -16.488281 17.535156 -13.71875 17.535156 -9.144531 C 17.535156 -4.597656 14.503906 -1.804688 9.695312 -1.804688 L 4.574219 -1.804688 Z M 4.574219 -16.488281 "/></g></g></g><g fill="#ffffff" fill-opacity="1"><g transform="translate(80.567103, 205.160612)"><g><path d="M 4.546875 -8.464844 L 15 -8.464844 L 15 -10.269531 L 4.546875 -10.269531 L 4.546875 -16.488281 L 16.382812 -16.488281 L 16.382812 -18.289062 L 2.5625 -18.289062 L 2.5625 0 L 16.644531 0 L 16.644531 -1.804688 L 4.546875 -1.804688 Z M 4.546875 -8.464844 "/></g></g></g><g fill="#ffffff" fill-opacity="1"><g transform="translate(106.404044, 205.160612)"><g><path d="M 11.054688 0 L 18.917969 -18.289062 L 16.777344 -18.289062 L 9.773438 -2.117188 L 9.71875 -2.117188 L 2.71875 -18.289062 L 0.574219 -18.289062 L 8.441406 0 Z M 11.054688 0 "/></g></g></g><g fill="#ffffff" fill-opacity="1"><g transform="translate(133.729884, 205.160612)"><g><path d="M 4.546875 -8.464844 L 15 -8.464844 L 15 -10.269531 L 4.546875 -10.269531 L 4.546875 -16.488281 L 16.382812 -16.488281 L 16.382812 -18.289062 L 2.5625 -18.289062 L 2.5625 0 L 16.644531 0 L 16.644531 -1.804688 L 4.546875 -1.804688 Z M 4.546875 -8.464844 "/></g></g></g><g fill="#ffffff" fill-opacity="1"><g transform="translate(159.566826, 205.160612)"><g><path d="M 15.3125 0 L 15.3125 -1.804688 L 4.574219 -1.804688 L 4.574219 -18.289062 L 2.5625 -18.289062 L 2.5625 0 Z M 15.3125 0 "/></g></g></g><g fill="#ffffff" fill-opacity="1"><g transform="translate(183.340185, 205.160612)"><g><path d="M 11.183594 0.261719 C 16.695312 0.261719 20.695312 -3.683594 20.695312 -9.144531 C 20.695312 -14.605469 16.695312 -18.550781 11.210938 -18.550781 C 5.722656 -18.550781 1.722656 -14.605469 1.722656 -9.144531 C 1.722656 -3.683594 5.722656 0.261719 11.183594 0.261719 Z M 11.210938 -1.621094 C 6.925781 -1.621094 3.867188 -4.675781 3.867188 -9.144531 C 3.867188 -13.613281 6.925781 -16.695312 11.210938 -16.695312 C 15.496094 -16.695312 18.550781 -13.613281 18.550781 -9.144531 C 18.550781 -4.675781 15.496094 -1.621094 11.210938 -1.621094 Z M 11.210938 -1.621094 "/></g></g></g><g fill="#ffffff" fill-opacity="1"><g transform="translate(213.591587, 205.160612)"><g><path d="M 9.378906 -18.289062 L 2.5625 -18.289062 L 2.5625 0 L 4.574219 0 L 4.574219 -6.0625 L 9.328125 -6.0625 C 13.980469 -6.0625 16.855469 -8.335938 16.855469 -12.203125 C 16.855469 -16.019531 14.058594 -18.289062 9.378906 -18.289062 Z M 4.574219 -7.890625 L 4.574219 -16.488281 L 9.328125 -16.488281 C 12.804688 -16.488281 14.84375 -15 14.84375 -12.230469 C 14.84375 -9.378906 12.804688 -7.890625 9.300781 -7.890625 Z M 4.574219 -7.890625 "/></g></g></g><g fill="#ffffff" fill-opacity="1"><g transform="translate(239.297922, 205.160612)"><g><path d="M 18.8125 -18.289062 L 11.863281 -3.082031 L 4.9375 -18.289062 L 2.847656 -18.289062 L 1.804688 0 L 3.839844 0 L 4.652344 -14.136719 L 11.183594 0 L 12.515625 0 L 19.074219 -14.136719 L 19.859375 0 L 21.898438 0 L 20.851562 -18.289062 Z M 18.8125 -18.289062 "/></g></g></g><g fill="#ffffff" fill-opacity="1"><g transform="translate(270.829277, 205.160612)"><g><path d="M 4.546875 -8.464844 L 15 -8.464844 L 15 -10.269531 L 4.546875 -10.269531 L 4.546875 -16.488281 L 16.382812 -16.488281 L 16.382812 -18.289062 L 2.5625 -18.289062 L 2.5625 0 L 16.644531 0 L 16.644531 -1.804688 L 4.546875 -1.804688 Z M 4.546875 -8.464844 "/></g></g></g><g fill="#ffffff" fill-opacity="1"><g transform="translate(296.666212, 205.160612)"><g><path d="M 4.574219 0 L 4.574219 -15 L 16.855469 0 L 18.710938 0 L 18.710938 -18.289062 L 16.671875 -18.289062 L 16.671875 -3.371094 L 4.441406 -18.289062 L 2.5625 -18.289062 L 2.5625 0 Z M 4.574219 0 "/></g></g></g><g fill="#ffffff" fill-opacity="1"><g transform="translate(325.742168, 205.160612)"><g><path d="M 0.628906 -18.289062 L 0.628906 -16.488281 L 7.082031 -16.488281 L 7.082031 0 L 9.121094 0 L 9.121094 -16.488281 L 15.601562 -16.488281 L 15.601562 -18.289062 Z M 0.628906 -18.289062 "/></g></g></g></svg>